# xmcd CD database file
#
# Track frame offsets:
#	150
#	22175
#	40473
#	59547
#	84238
#	102654
#	125821
#	142842
#	171814
#	188381
#	210212
#	223775
#	242126
#	276609
#	290472
#
# Disc length: 4161 seconds
#
# Revision: 0
# Processed by: cddbd v1.5.1PL2 Copyright (c) Steve Scherf et al.
# Submitted via: CDex 1.50
#
DISCID=e6103f0f
DTITLE=Paul Rodgers - Muddy Water Blues
DYEAR=1993
DGENRE=Blues
TTITLE0=Muddy Water Blues
TTITLE1=Louisiana Blues
TTITLE2=I Can't Be Satisfied
TTITLE3=Rollin' Stones
TTITLE4=Good Morning Little School Girl (Part 1)
TTITLE5=I'm Your Hoochie Coochie Man
TTITLE6=She's Alright
TTITLE7=Standing Around Crying
TTITLE8=The Hunter
TTITLE9=She Moves Me
TTITLE10=I'm Ready
TTITLE11=I Just Want To Make Love To You
TTITLE12=Born Under A Bad Sign
TTITLE13=Good Morning Little School Girl (Part 2)
TTITLE14=Muddy Water Blues
EXTD=YEAR: 1993
EXTT0=
EXTT1=
EXTT2=
EXTT3=
EXTT4=
EXTT5=
EXTT6=
EXTT7=
EXTT8=
EXTT9=
EXTT10=
EXTT11=
EXTT12=
EXTT13=
EXTT14=
PLAYORDER=
